<svg id="Layer_1" data-name="Layer 1" xmlns="http://www.w3.org/2000/svg" viewBox="0 0 541.96 206.08"><defs><style>.cls-1{fill:#99141b;}.cls-2{fill:#fcc200;stroke:#fff;fill-rule:evenodd;}.cls-3{fill:#2d2c2f;}</style></defs><title>ccm-01</title><path class="cls-1" d="M191.67,267q0-11.42,5.92-24.89a86.73,86.73,0,0,1,17.49-25.4,89,89,0,0,1,28.48-19.36q16.92-7.43,37.86-7.43a103.85,103.85,0,0,1,32.79,5.74,100.8,100.8,0,0,1,30.87,16.46q13.6,10.73,18.84,24.59H327.39q-20.08-19.14-45.45-19.13a59.89,59.89,0,0,0-28.77,7.25,59.13,59.13,0,0,0-21.61,19.3,44.89,44.89,0,0,0-8.08,25.39,48.3,48.3,0,0,0,4.75,21.4,51.24,51.24,0,0,0,13.14,16.92,61.38,61.38,0,0,0,18.85,10.93,65.68,65.68,0,0,0,21.72,3.95q25.49-.65,43.32-17.86H363A68.32,68.32,0,0,1,347,326a86.75,86.75,0,0,1-22,14.26A109.42,109.42,0,0,1,301,348a118.69,118.69,0,0,1-22.87,2.36,105.07,105.07,0,0,1-42.86-11.7,80.35,80.35,0,0,1-31.07-28.57Q192.59,291.71,191.67,267Z" transform="translate(-6.14 -189.87)"/><path class="cls-1" d="M375.46,350.21V191h41.45l44.38,121.78L506.16,191h41.93V350.21H517.54V230.37L474.47,350.21H448.6L406,230.37V350.21Z" transform="translate(-6.14 -189.87)"/><path class="cls-1" d="M18.45,267q0-11.42,5.92-24.89a86.73,86.73,0,0,1,17.49-25.4,89.13,89.13,0,0,1,28.48-19.36q16.92-7.44,37.86-7.44A103.82,103.82,0,0,1,141,195.66a100.58,100.58,0,0,1,30.87,16.46q13.6,10.71,18.84,24.58H154.17q-20.08-19.12-45.45-19.13A59.9,59.9,0,0,0,80,224.83a59,59,0,0,0-21.6,19.3,44.82,44.82,0,0,0-8.09,25.38A48.34,48.34,0,0,0,55,290.92a51.33,51.33,0,0,0,13.15,16.91A61.25,61.25,0,0,0,87,318.76a65.44,65.44,0,0,0,21.72,4q25.48-.66,43.32-17.86h37.74a68.16,68.16,0,0,1-16,21.13,86.48,86.48,0,0,1-21.95,14.26,108.93,108.93,0,0,1-24,7.77,119.49,119.49,0,0,1-22.87,2.36,105.07,105.07,0,0,1-42.86-11.7A80.43,80.43,0,0,1,31,310.11Q19.36,291.77,18.45,267Z" transform="translate(-6.14 -189.87)"/><path class="cls-2" d="M78.66,271.82c-8.39,0-16.78,9.42-16.82,15.08l51.2,0c1.73-7.48,8.69-13,13.3-14.94Z" transform="translate(-6.14 -189.87)"/><path class="cls-2" d="M61.06,216.11c14.33,3.3,16.11,12.32,16.11,14.82v39.38S64,272.33,61.06,285Z" transform="translate(-6.14 -189.87)"/><path class="cls-2" d="M61.06,287.87H77.17l0,96.12c-5.18.85-14.18,6.76-16.08,11.79Z" transform="translate(-6.14 -189.87)"/><path class="cls-2" d="M60.28,272.13v15H6.65c.11-6.63,10.26-15.07,17.3-15Z" transform="translate(-6.14 -189.87)"/><path class="cls-3" d="M83.83,374.09a7.06,7.06,0,0,1,.63-2.74,9.47,9.47,0,0,1,1.87-2.8,9.36,9.36,0,0,1,3-2.12,9.6,9.6,0,0,1,4-.82,10.85,10.85,0,0,1,3.5.63,10.65,10.65,0,0,1,3.29,1.81,6.27,6.27,0,0,1,2,2.7h-3.9a6.75,6.75,0,0,0-4.85-2.1,6.28,6.28,0,0,0-3.07.8,6.35,6.35,0,0,0-2.3,2.12,5,5,0,0,0-.87,2.79,5.47,5.47,0,0,0,.51,2.36,5.71,5.71,0,0,0,1.4,1.86,6.63,6.63,0,0,0,2,1.2,6.82,6.82,0,0,0,2.32.44,6.6,6.6,0,0,0,4.63-2h4a7.52,7.52,0,0,1-1.71,2.33,9.32,9.32,0,0,1-2.34,1.57,11.65,11.65,0,0,1-2.56.85,12.6,12.6,0,0,1-2.44.26A11,11,0,0,1,88.48,382a8.68,8.68,0,0,1-3.31-3.14A9.49,9.49,0,0,1,83.83,374.09Z" transform="translate(-6.14 -189.87)"/><path class="cls-3" d="M104.4,365.93h3.45v6.78h6.69v-6.78H118v16.92h-3.42v-7.12h-6.69v7.12H104.4Z" transform="translate(-6.14 -189.87)"/><path class="cls-3" d="M126.48,365.93h.31l.32,0a9.56,9.56,0,0,1,3.47.59A5.11,5.11,0,0,1,133,368.3a5.58,5.58,0,0,1,.94,3.07,5.07,5.07,0,0,1-.46,2.06,5.22,5.22,0,0,1-1.56,1.94,6.42,6.42,0,0,1-2.81,1.23l5.06,6.25h-4.28L125,376.28v6.57h-3.49V365.93ZM125,369v5h2.21c2.2-.05,3.3-.95,3.3-2.68a1.86,1.86,0,0,0-1-1.77,6.18,6.18,0,0,0-2.63-.53Z" transform="translate(-6.14 -189.87)"/><path class="cls-3" d="M136.1,365.93h3.44v16.92H136.1Z" transform="translate(-6.14 -189.87)"/><path class="cls-3" d="M142.43,370.43a4.36,4.36,0,0,1,.74-2.48,5.07,5.07,0,0,1,2-1.73,6.2,6.2,0,0,1,2.76-.61A7.46,7.46,0,0,1,150,366a5,5,0,0,1,2.18,1.44,4.91,4.91,0,0,1,1.21,3h-3.56a2,2,0,0,0-.69-1.3,2.09,2.09,0,0,0-1.31-.44,2,2,0,0,0-1.4.51,1.77,1.77,0,0,0-.56,1.42c.07.58.58,1.06,1.53,1.46s1.88.78,2.83,1.13a7.11,7.11,0,0,1,2.45,1.53,4,4,0,0,1,1.13,2.87,5.3,5.3,0,0,1-.86,3.09,5.4,5.4,0,0,1-2.22,1.88,7.79,7.79,0,0,1-2.9.68,6.81,6.81,0,0,1-3-.68,5.71,5.71,0,0,1-2.19-1.86,4.9,4.9,0,0,1-.87-2.61h3.62a2.25,2.25,0,0,0,.75,1.55,2.57,2.57,0,0,0,1.52.56,3.65,3.65,0,0,0,1.64-.47,2.25,2.25,0,0,0,1-1.06,3,3,0,0,0,.2-.9,1.29,1.29,0,0,0-.63-1.27c-.43-.21-1.38-.59-2.87-1.15a9.83,9.83,0,0,1-3.33-1.88A4.49,4.49,0,0,1,142.43,370.43Z" transform="translate(-6.14 -189.87)"/><path class="cls-3" d="M154.68,369v-3H165v3h-3.49v13.88h-3.42l0-13.88Z" transform="translate(-6.14 -189.87)"/><path class="cls-3" d="M166.75,365.93h3.45v16.92h-3.45Z" transform="translate(-6.14 -189.87)"/><path class="cls-3" d="M180,365.93h2.67l7.85,16.92h-3.77l-2-4.37h-6.64L176,382.85h-3.77Zm1.33,4.41-2,5.1h4Z" transform="translate(-6.14 -189.87)"/><path class="cls-3" d="M192.38,365.93h4l7.7,12.46V365.93h3.44v16.92h-3.82l-7.82-12.37v12.37h-3.45Z" transform="translate(-6.14 -189.87)"/><path class="cls-3" d="M217,374.09a6.91,6.91,0,0,1,.64-2.74,9.62,9.62,0,0,1,1.86-2.8,9.47,9.47,0,0,1,3-2.12,9.6,9.6,0,0,1,4-.82,10.81,10.81,0,0,1,3.5.63,10.59,10.59,0,0,1,3.3,1.81,6.43,6.43,0,0,1,2,2.7h-3.9a6.77,6.77,0,0,0-4.85-2.1,6.25,6.25,0,0,0-3.07.8,6.38,6.38,0,0,0-2.31,2.12,5.05,5.05,0,0,0-.86,2.79,5.44,5.44,0,0,0,1.91,4.22,6.63,6.63,0,0,0,2,1.2,6.73,6.73,0,0,0,2.32.44,6.6,6.6,0,0,0,4.62-2h4a7.52,7.52,0,0,1-1.71,2.33,9.32,9.32,0,0,1-2.34,1.57,11.73,11.73,0,0,1-2.57.85,12.6,12.6,0,0,1-2.44.26,11,11,0,0,1-4.57-1.29,8.71,8.71,0,0,1-3.32-3.14A9.59,9.59,0,0,1,217,374.09Z" transform="translate(-6.14 -189.87)"/><path class="cls-3" d="M236.68,374.68a8.41,8.41,0,0,1,1.42-4.91,9,9,0,0,1,3.68-3.11,10.82,10.82,0,0,1,4.63-1.05,9.78,9.78,0,0,1,3.72.72,9.89,9.89,0,0,1,3.11,2,9.26,9.26,0,0,1,2.08,2.87,8,8,0,0,1,.75,3.39c0,.05,0,.13,0,.24s0,.18,0,.24a8.22,8.22,0,0,1-1.15,3.45,9.57,9.57,0,0,1-8.68,4.78,10.83,10.83,0,0,1-4.22-.85,9,9,0,0,1-3-2.1,8.82,8.82,0,0,1-1.75-2.78A8.1,8.1,0,0,1,236.68,374.68Zm3.39-.13a5.26,5.26,0,0,0,.67,2.38,6.07,6.07,0,0,0,1.56,1.81,7.42,7.42,0,0,0,2,1.1,5.89,5.89,0,0,0,2,.38,6.61,6.61,0,0,0,3.1-.76,6.26,6.26,0,0,0,2.3-2.09,5.74,5.74,0,0,0,.94-2.91,5.59,5.59,0,0,0-.74-2.78,5.69,5.69,0,0,0-2.1-2.12,6.63,6.63,0,0,0-3.15-.91,7.34,7.34,0,0,0-2.21.36,7,7,0,0,0-2.13,1.1,5.38,5.38,0,0,0-2.2,4.44Z" transform="translate(-6.14 -189.87)"/><path class="cls-3" d="M258.74,382.85V365.93h4.67l5,12.94,5.06-12.94h4.72v16.92h-3.44V370.11l-4.86,12.74H267l-4.81-12.74v12.74Z" transform="translate(-6.14 -189.87)"/><path class="cls-3" d="M281.37,382.85V365.93H286l5,12.94,5.06-12.94h4.73v16.92h-3.45V370.11l-4.85,12.74h-2.92l-4.8-12.74v12.74Z" transform="translate(-6.14 -189.87)"/><path class="cls-3" d="M304,377.31V365.93h3.44v11.38a3,3,0,0,0,.39,1.54,2.76,2.76,0,0,0,2.4,1.37,3.23,3.23,0,0,0,1.4-.32,2.47,2.47,0,0,0,1.07-.93,2.76,2.76,0,0,0,.4-1.52V365.93h3.47v11.43a5.66,5.66,0,0,1-.78,2.84,5.93,5.93,0,0,1-2.21,2.21,6.34,6.34,0,0,1-3.3.85,6.86,6.86,0,0,1-3.14-.79,6,6,0,0,1-2.29-2.13A5.54,5.54,0,0,1,304,377.31Z" transform="translate(-6.14 -189.87)"/><path class="cls-3" d="M320.13,365.93h3.95l7.69,12.46V365.93h3.45v16.92H331.4l-7.82-12.37v12.37h-3.45Z" transform="translate(-6.14 -189.87)"/><path class="cls-3" d="M338.74,365.93h3.45v16.92h-3.45Z" transform="translate(-6.14 -189.87)"/><path class="cls-3" d="M344.25,369v-3h10.36v3h-3.49v13.88H347.7L347.65,369Z" transform="translate(-6.14 -189.87)"/><path class="cls-3" d="M354.66,365.93h3.82l4,7.72,4.1-7.72h3.77l-6.14,10.67v6.25H360.8V376.6Z" transform="translate(-6.14 -189.87)"/><path class="cls-3" d="M378.91,382.85V365.93h4.67l5,12.94,5.06-12.94h4.73v16.92h-3.44V370.11l-4.86,12.74h-2.92l-4.8-12.74v12.74Z" transform="translate(-6.14 -189.87)"/><path class="cls-3" d="M401.54,365.93H405v16.92h-3.45Z" transform="translate(-6.14 -189.87)"/><path class="cls-3" d="M408.56,365.93h3.95l7.69,12.46V365.93h3.45v16.92h-3.82L412,370.48v12.37h-3.44Z" transform="translate(-6.14 -189.87)"/><path class="cls-3" d="M427.17,365.93h3.45v16.92h-3.45Z" transform="translate(-6.14 -189.87)"/><path class="cls-3" d="M433.51,370.43a4.28,4.28,0,0,1,.74-2.48,5,5,0,0,1,2-1.73,6.28,6.28,0,0,1,2.77-.61,7.45,7.45,0,0,1,2.06.35,5.09,5.09,0,0,1,2.19,1.44,4.91,4.91,0,0,1,1.2,3h-3.55a2,2,0,0,0-.7-1.3,2.06,2.06,0,0,0-1.3-.44,2,2,0,0,0-1.4.51,1.77,1.77,0,0,0-.57,1.42c.08.58.59,1.06,1.53,1.46s1.89.78,2.83,1.13a7.25,7.25,0,0,1,2.46,1.53,4.12,4.12,0,0,1,1.13,2.87,5.38,5.38,0,0,1-.86,3.09,5.49,5.49,0,0,1-2.23,1.88,7.74,7.74,0,0,1-2.89.68,6.81,6.81,0,0,1-3-.68,5.71,5.71,0,0,1-2.19-1.86,4.74,4.74,0,0,1-.87-2.61h3.62a2.2,2.2,0,0,0,.74,1.55,2.59,2.59,0,0,0,1.52.56,3.62,3.62,0,0,0,1.64-.47,2.25,2.25,0,0,0,1-1.06,2.8,2.8,0,0,0,.21-.9,1.28,1.28,0,0,0-.64-1.27c-.42-.21-1.38-.59-2.86-1.15a9.64,9.64,0,0,1-3.33-1.88A4.44,4.44,0,0,1,433.51,370.43Z" transform="translate(-6.14 -189.87)"/><path class="cls-3" d="M445.76,369v-3h10.36v3h-3.5v13.88H449.2L449.15,369Z" transform="translate(-6.14 -189.87)"/><path class="cls-3" d="M462.81,365.93h.31l.32,0a9.5,9.5,0,0,1,3.46.59,5.06,5.06,0,0,1,2.38,1.81,5.59,5.59,0,0,1,1,3.07,5.13,5.13,0,0,1-2,4,6.38,6.38,0,0,1-2.8,1.23l5.06,6.25h-4.29l-4.85-6.57v6.57h-3.49V365.93Zm-1.53,3v5h2.21c2.19-.05,3.29-.95,3.29-2.68a1.86,1.86,0,0,0-1-1.77,6.13,6.13,0,0,0-2.62-.53Z" transform="translate(-6.14 -189.87)"/><path class="cls-3" d="M472.42,365.93h3.45v16.92h-3.45Z" transform="translate(-6.14 -189.87)"/><path class="cls-3" d="M479.44,365.93h10v3h-6.59v3.91h6.29v3h-6.29v3.88h6.54v3.05h-10Z" transform="translate(-6.14 -189.87)"/><path class="cls-3" d="M491.84,370.43a4.28,4.28,0,0,1,.74-2.48,5,5,0,0,1,2-1.73,6.2,6.2,0,0,1,2.76-.61,7.46,7.46,0,0,1,2.07.35,5.09,5.09,0,0,1,2.19,1.44,4.91,4.91,0,0,1,1.2,3h-3.55a2,2,0,0,0-.7-1.3,2.07,2.07,0,0,0-1.31-.44,2,2,0,0,0-1.39.51,1.77,1.77,0,0,0-.57,1.42c.07.58.58,1.06,1.53,1.46s1.89.78,2.83,1.13a7.25,7.25,0,0,1,2.46,1.53,4.12,4.12,0,0,1,1.13,2.87,5.38,5.38,0,0,1-.86,3.09,5.49,5.49,0,0,1-2.23,1.88,7.75,7.75,0,0,1-2.9.68,6.79,6.79,0,0,1-3-.68,5.81,5.81,0,0,1-2.2-1.86,4.9,4.9,0,0,1-.87-2.61h3.63a2.2,2.2,0,0,0,.74,1.55,2.59,2.59,0,0,0,1.52.56,3.62,3.62,0,0,0,1.64-.47,2.25,2.25,0,0,0,1-1.06,2.8,2.8,0,0,0,.21-.9,1.29,1.29,0,0,0-.64-1.27c-.42-.21-1.38-.59-2.86-1.15a9.64,9.64,0,0,1-3.33-1.88A4.44,4.44,0,0,1,491.84,370.43Z" transform="translate(-6.14 -189.87)"/><path class="cls-3" d="M512.62,365.93h3.44V379.8h5.7v3.05h-9.14Z" transform="translate(-6.14 -189.87)"/><path class="cls-3" d="M520.86,369v-3h10.36v3h-3.49v13.88h-3.42l0-13.88Z" transform="translate(-6.14 -189.87)"/><path class="cls-3" d="M536.23,365.93a16.58,16.58,0,0,1,8,1.72q3.13,1.73,3.55,6.21a7.15,7.15,0,0,1,.06.75,8.06,8.06,0,0,1-.53,2.8,7.72,7.72,0,0,1-1.75,2.66,9,9,0,0,1-3.29,2,14.7,14.7,0,0,1-5,.77h-4.33V365.93Zm.2,3,0,10.79h.8a9.49,9.49,0,0,0,5.25-1.27,4.49,4.49,0,0,0,2-4.05,5.25,5.25,0,0,0-.77-2.85,5.06,5.06,0,0,0-2.37-1.95,9.83,9.83,0,0,0-4-.71C536.88,369,536.61,369,536.43,369Z" transform="translate(-6.14 -189.87)"/></svg>