<?xml version="1.0" encoding="utf-8"?>
<!-- Generator: Adobe Illustrator 19.1.0, SVG Export Plug-In . SVG Version: 6.00 Build 0)  -->
<svg version="1.1" id="Layer_1" xmlns="http://www.w3.org/2000/svg" xmlns:xlink="http://www.w3.org/1999/xlink" x="0px" y="0px"
	 viewBox="0 0 418 60" style="enable-background:new 0 0 418 60;" xml:space="preserve">
<style type="text/css">
	.st0{fill:none;stroke:#7A2A2B;stroke-width:0.1;stroke-miterlimit:10;}
	.st1{fill:#FFFFFF;stroke:#2A477D;stroke-miterlimit:10;}
	.st2{fill:none;stroke:#2A477D;stroke-miterlimit:10;}
	.st3{fill:#2A477D;}
	.st4{fill:none;stroke:#2A477D;stroke-width:2.1;stroke-miterlimit:10;}
	.st5{fill:#FFFFFF;}
</style>
<g>
	<g>
		<path class="st1" d="M257.8,22.4c0,0,1.3,0.7,5.4,0.3c0,0,1.5-0.5,2.7,1.5l-1,3.6c0,0,5.3,7.1,5.6,11c0,0-0.3,2.6-2.5,1.3
			c0,0-0.8,1.8-3,0.7c0,0-0.8,1.4-2.6,0.4c0,0-1.3,1.1-3-0.3l-5.6-8.4c0,0-1.1-2.2-2.4-2.9L257.8,22.4z"/>
		<path class="st1" d="M265.4,33.8c0,0,0,1.1,0.4,1.7c0.3,0.7,2.2,4.5,2.2,4.5"/>
		<line class="st2" x1="262.7" y1="36.6" x2="264.9" y2="40.7"/>
		<path class="st1" d="M260,37.6c0,0,0.6,0.3,1.5,2.3c0,0,0.7,1.1,0.9,1.3"/>
	</g>
	<path class="st1" d="M253.3,34.7c0-0.1-0.1-0.2-0.1-0.3c-0.4-1.5,1.4-2.3,2.6-2.4c0.3,0,0.7,0,1,0.1c0.4,0.2,0.6,0.8,0.7,1.3
		c0,0.5-0.2,0.8-0.6,1c-0.4,0.2-0.7,0.5-1.1,0.7c-0.4,0.3-1.3,1-1.8,0.6c-0.1-0.1-0.2-0.2-0.3-0.3C253.5,35.2,253.4,35,253.3,34.7z"
		/>
	<path class="st1" d="M255.2,35.4c0.3-0.2,0.6-0.4,0.9-0.6c0.6-0.3,1.3-0.7,2-0.7c0.7,0,1.2,0.6,1.2,1.2c0.1,1-0.9,1.4-1.6,1.9
		c-0.6,0.4-1.6,1.5-2.5,0.8c-0.4-0.3-0.7-0.9-0.7-1.4C254.6,36,254.8,35.7,255.2,35.4z"/>
	<path class="st1" d="M258.6,36.7C258.6,36.7,258.6,36.7,258.6,36.7c0.5,0.3,0.9,0.7,1,1.2c0.1,0.3-0.1,0.7-0.3,0.9
		c-0.2,0.2-0.5,0.4-0.6,0.7c-0.1,0.2,0,0.3,0.1,0.5c0.1,0.2,0.1,0.3,0.3,0.4c0,0-0.5,0.1-0.5,0.1c-0.2,0-0.4,0-0.5-0.1
		c-0.8-0.2-1.4-0.8-1.5-1.7c0-0.3,0.1-0.4,0.3-0.6c0.2-0.2,0.4-0.4,0.6-0.6C257.7,37.2,258.1,36.9,258.6,36.7
		C258.5,36.7,258.6,36.7,258.6,36.7C258.6,36.7,258.6,36.7,258.6,36.7z"/>
	<path class="st1" d="M252.1,30.2C252.1,30.2,252.1,30.2,252.1,30.2c-0.1,0-0.1,0-0.1,0.1c-0.4,0.5-0.7,1.1-0.7,1.7
		c0.1,0.7,0.7,1.1,1.3,1.3c0,0,0.1,0,0.1,0c0,0,0,0,0,0c0.4,0,0.8-0.2,1-0.6c0,0,0,0,0-0.1v0c0.1-0.3,0-0.6-0.1-0.8
		c-0.1-0.3-0.3-0.5-0.5-0.7C252.9,30.7,252.6,30.4,252.1,30.2C252.2,30.2,252.1,30.2,252.1,30.2"/>
	<path class="st1" d="M268.4,33.6c1,1.6,1.6,3.4,2.1,5.2c1.9-0.6,3.9-1.1,5.9-1.3c-0.6-3.1-1.3-6.2-1.9-9.3c0-0.1,0-0.2-0.1-0.3
		c-0.1-0.1-0.2-0.2-0.4-0.2c-1.6-0.4-3.2-1-4.5-2.1c-0.6-0.5-1.1-1-1.8-1.3c-0.8-0.3-1.7-0.2-2.6-0.1c-1.1,0.2-2.3,0.4-3.4,0.7
		c-0.5,0.2-1.1,0.4-1.4,0.8c-0.4,0.4-0.5,1-0.8,1.4c-0.3,0.4-0.7,0.7-1,1.1c-0.3,0.4-0.4,1-0.2,1.4c0.1,0.2,0.4,0.4,0.7,0.5
		c0.6,0.2,1.4,0.2,2,0c0.7-0.3,1.2-0.8,1.7-1.2c0.6-0.4,1.2-0.8,1.9-0.7c0.2,0,0.3,0.1,0.4,0.2c0.4,0.3,0.4,0.8,0.5,1.2
		c0.2,0.5,0.4,1.1,0.7,1.5C267,31.9,267.5,32.8,268.4,33.6c0.4,0.3,1,0.4,1.5,0.3"/>
	<path class="st1" d="M255.9,20.8l2,1.4c0,0-4.5,6.4-8.7,9.1c0,0-3.5-0.2-4.9-1.5L255.9,20.8z"/>
	<path class="st3" d="M256.3,20.7c0,0-0.1,0.1-0.2,0.3c-0.9,1.2-4.6,6.1-11.8,8.9h0c-0.6,0.2-1.2,0.4-1.8,0.6l-2.7-3
		c0.1-1,0.3-2,0.5-2.9c1.2-5.1,3.9-9.6,7.6-13.1c0,0,0.1-0.1,0.1-0.1L256.3,20.7z"/>
	<path class="st1" d="M274.3,27.6l3.2-0.4c0,0,4,5.7,4.2,11.9c0,0-4.1-0.6-5.2-1.6L274.3,27.6z"/>
	<g>
		<path class="st3" d="M291.8,30.4c0,3.5-0.7,6.8-1.9,9.9c-0.2,0.5-0.4,0.9-0.6,1.4c-0.9,0.3-1.9,0.5-3,0.8
			c-1.5,0.4-3.1,0.9-4.6,1.3c-0.9-1.8-1.6-3.5-2.2-5.1c-2.2-5.8-3-10.1-3.2-11.3c0-0.2,0-0.4-0.1-0.4v0l4.1-0.9l10.6-2.3
			c0.1,0.5,0.2,1,0.3,1.5C291.6,26.9,291.8,28.7,291.8,30.4z"/>
	</g>
	<path class="st4" d="M291.8,30.4c0,3.5-0.7,6.8-1.9,9.9c-0.2,0.5-0.4,0.9-0.6,1.4c-4.2,8.7-13.1,14.8-23.5,14.8
		c-14.4,0-26.1-11.7-26.1-26.1c0-1,0.1-2,0.2-3c0.1-1,0.3-2,0.5-2.9c1.2-5.1,3.9-9.6,7.6-13.1c0,0,0.1-0.1,0.1-0.1
		c4.6-4.3,10.9-7,17.7-7c12.1,0,22.3,8.3,25.2,19.4c0.1,0.5,0.2,1,0.3,1.5C291.6,26.9,291.8,28.7,291.8,30.4z"/>
</g>
<path class="st3" d="M15.1,14.9c0.3,3.5,0.3,8.7,0,15.8c-0.3,7.2-0.3,12.2,0,15.2c-0.2,0,4.6,0.1,14.4,0.5c0.8,4.5,0.7,7.7-0.2,9.5
	c-3.4,0.6-7.6,0.7-12.7,0.4c-1.5-0.1-3.6-0.2-6.4-0.5c-2.9-0.2-4.9-0.4-6.1-0.5c-0.7-1.3-1-4-0.8-8.1c0.6-12,0.9-18.2,1-18.5
	c0-0.2-0.3-3.5-0.8-9.8c-0.1-0.9-0.1-2.1-0.1-3.7c0-1.8-0.1-3.1-0.1-3.9c-0.2-4.3-0.2-6.7,0-6.9c0.5-0.6,2.1-0.8,4.7-0.6
	c3.3,0.2,5.1,0.3,5.4,0.3C14.1,5.1,14.6,8.8,15.1,14.9z"/>
<path class="st5" d="M5.7,6.3c0.9,12.7,0.9,28.3,0,46.6c6.5,1.3,13.7,1.7,21.7,1v-5.4c-1.7,0.1-4,0-6.9-0.1
	c-3.4-0.1-5.6-0.2-6.7-0.2c-1-0.7-1.5-2.7-1.5-6c0.1-20.1,0-32.1-0.4-36C11.4,6,10.5,6,9,6C7.6,6,6.6,6,6.1,5.8
	C5.8,5.9,5.7,6.1,5.7,6.3z"/>
<path class="st3" d="M60.5,13c-1.6,0.4-4,0.6-7.3,0.6c-4,0-6.5,0.1-7.7,0.3c0.1,1.2,0.2,2.9,0.3,5.2c0.1,2.4,0.2,4.1,0.3,5.2
	c0.9,0.4,2.8,0.6,5.8,0.6c2.8,0,4.6,0.3,5.4,0.9c0,3.7-0.2,6.3-0.8,7.8c-1.2,0.1-2.9,0.2-5.1,0.2c-3,0-4.7,0-5.3,0
	c-0.5,5.2-0.7,9.3-0.6,12.3c1.3,0.2,3.7,0.2,7.2-0.3c3.2-0.4,5.6-0.3,7.3,0.3c0.5,1.1,0.6,4,0.6,9c-0.8,0.3-4.4,0.5-10.8,0.7
	c-0.8,0-2.1,0.1-3.8,0.3c-1.8,0.2-3.1,0.3-3.9,0.4c-2.9,0.1-5-0.4-6.2-1.7c-0.1-3.1,0-9.5,0.1-19.1c0.2-8.2,0.1-14.8-0.1-19.6
	C35.5,9.4,35.5,5.3,36,3.7c13.4-0.3,21.6-0.1,24.7,0.7C60.9,5.6,60.9,8.5,60.5,13z"/>
<path class="st5" d="M38.3,29.9c0,1,0,5,0,12.1c0,4.8,0,8.8,0,11.9c2.4,0.4,5.7,0.4,10,0c4.8-0.4,8.1-0.5,10-0.4
	c0-0.7,0-1.6-0.1-2.8C58,49.5,58,48.6,58.1,48c-1.1-0.3-2.6-0.3-4.4-0.1c-3,0.4-4.5,0.6-4.7,0.6c-2.9,0.1-4.7-0.1-5.3-0.8
	c-0.6-0.8-0.8-3.1-0.6-6.9c0.2-3.5,0.5-6.3,0.9-8.6c0.2-0.1,3.8-0.2,10.6-0.5c-0.1-0.5,0-1.3,0.1-2.4c0.1-1,0.1-1.5-0.1-1.7
	c-0.7-0.2-2.7-0.3-5.8-0.4c-2.5,0-4.2-0.4-5-1.1c0,0-0.1-1.3-0.2-3.6c-0.3-6.5-0.4-10-0.2-10.5c1.3,0,3.7-0.1,7.2-0.2
	c3.3-0.1,5.9-0.1,7.7-0.1c0.2-0.6,0.2-1.4,0.2-2.6c0-1.6,0-2.5,0-2.8c-2.2-0.1-5.5-0.2-9.9-0.2c-4.8,0-8.3,0-10.4-0.1
	c-0.3,0.1-0.4,0.2-0.4,0.5C38.1,12.4,38.3,20.3,38.3,29.9z"/>
<path class="st3" d="M97.4,53.8c-0.5-1.3-0.8-1.9-0.8-1.9c-0.1-0.6-1.2-8.5-3.4-23.7c-0.4-2.5-1-6.5-2-11.9c-0.9-5.1-1.5-9-1.9-11.6
	c-2.1-0.6-4.6-0.9-7.4-0.9c-3.1,0-5.5,0.3-7.2,1.1c-0.1,0.6-3,17.6-8.8,51c1,0.5,4.1,0.6,9,0.3c0.6-0.7,1.1-2.1,1.3-4.1
	c0.2-2.3,0.5-3.8,0.8-4.5c1.6-0.1,4.7,0.1,9,0.5c1.1,4.4,1.9,7.1,2.5,8c2.3,0.6,5.3,0.6,9.1-0.1C97.8,55.3,97.7,54.6,97.4,53.8z
	 M82.8,29c0.5,5.5,0.8,8.8,1,9.9c-0.3,0-2.1,0-5.2,0.2c1.3-11.7,2.2-18.3,2.7-19.9C81.9,21.4,82.4,24.7,82.8,29z"/>
<path class="st5" d="M87.4,6.3c-0.8-0.2-4.3-0.2-10.6-0.2C75.4,12,74,19.9,72.4,29.8C70.3,43.4,69,51.4,68.6,54h4.8
	c0.2-0.7,0.4-2.1,0.8-4.4c0.3-1.8,0.6-3.2,0.9-4.2c1.5-0.2,5.8,0,13.1,0.5c0.4,2.4,1.1,5.2,2.1,8.4c0.4,0,1.1-0.1,2.2-0.2
	c0.9-0.1,1.6-0.1,2.3,0C93.2,45.7,90.8,29.8,87.4,6.3z M78.6,39.1c1.3-11.7,2.2-18.3,2.7-19.9c0.6,2.2,1.2,5.5,1.5,9.8
	c0.5,5.5,0.8,8.8,1,9.9C83.5,38.9,81.7,38.9,78.6,39.1z"/>
<path class="st3" d="M85.3,30.3c-0.5-5.1-1-8.6-1.3-10.7c-0.1-0.4-0.1-1-0.2-1.8c0-0.8-0.1-1.4-0.2-1.8c-0.2-1.3-0.6-2.4-1.2-3.1
	c-0.3,0-0.7,0.1-1,0.2c-0.4,0.2-0.8,0.3-0.9,0.3c-2.1,5.8-3.6,14.9-4.4,27.2c1,0.5,2.7,0.7,5,0.6c0.7-0.1,1.7-0.2,2.9-0.3
	c1.4-0.1,2.2-0.2,2.6-0.3C86.3,38.5,85.8,35,85.3,30.3z M78.6,39.1c1.3-11.7,2.2-18.3,2.7-19.9c0.6,2.2,1.2,5.5,1.5,9.8
	c0.5,5.5,0.8,8.8,1,9.9C83.5,38.9,81.7,38.9,78.6,39.1z"/>
<path class="st3" d="M131.6,41.8c-0.3-5.6-1.9-9.2-4.6-10.7c0.9-0.3,1.7-1,2.3-2.1c1.4-2.6,2.1-6.5,2.3-11.5
	c0.2-5.5-0.7-9.1-2.7-10.8c-1.5-1.4-3.7-2.3-6.3-2.8c-2-0.4-8.3-0.3-18.8,0.2c-0.5,1.5-0.8,5.7-0.8,12.6v26.5
	c0,6.9,0.3,11.1,0.8,12.6c4,0.8,7.4,0.9,10,0.2c0.4-2.5,0.6-5.6,0.6-9.5c0-4.9,0.1-8.1,0.2-9.7c2,0,3.2,0.1,3.4,0.1
	c1.2,0.2,2.1,0.6,2.6,1.3c1.1,1.5,1.4,4.8,1,9.8c-0.3,3.7-0.3,6,0.2,6.8c0.7,1.2,2.2,1.8,4.6,1.8c1.4,0,3.6-0.3,6.4-0.8
	C132.5,55.2,132.1,50.5,131.6,41.8z M115.1,27.6c-0.6-4.3-0.9-8.9-0.9-14c0-0.3,0.1-0.5,0.2-0.5l5.6,0.3c0.9,3.8,1.2,6.9,0.9,9.3
	C120.3,26.3,118.4,27.9,115.1,27.6z"/>
<path class="st5" d="M129.3,44.3c0.1-4.4-0.4-7.6-1.5-9.4c-0.2-0.3-1-0.9-2.4-1.8c-1.2-0.8-1.8-1.5-1.8-2c0-0.5,0.5-0.9,1.4-1.4
	c1.1-0.5,1.7-0.9,1.9-1.1c1.1-1.3,1.8-4.9,2.3-11c0.3-3.6-0.1-6.2-1.1-7.9c-1-1.8-2.9-3-5.7-3.6c-2.2-0.5-4.9-0.6-8.2-0.4
	c-4.4,0.2-7.2,0.3-8.6,0.3c-0.2,6-0.2,13.9-0.2,23.7c0,13.1,0,21.1,0,23.9c2.2,0.4,4.2,0.6,6.1,0.6c0.2-1.6,0.3-5,0.2-10.1
	c-0.1-4.3,0.3-7.4,1-9.5c5.2-0.3,8.4,0.4,9.6,2.1c1.1,1.5,1.6,4.2,1.4,8.1c-0.2,4.7-0.2,7.6,0.2,9c0.1-0.1,2.1,0,6,0.4
	C129.4,52.5,129.2,49.3,129.3,44.3z M115.1,27.6c-0.6-4.3-0.9-8.9-0.9-14c0-0.3,0.1-0.5,0.2-0.5l5.6,0.3c0.9,3.8,1.2,6.9,0.9,9.3
	C120.3,26.3,118.4,27.9,115.1,27.6z"/>
<path class="st3" d="M121.9,11.9c-1-0.5-2.3-0.9-3.9-1.1c-1.8-0.3-3.2-0.3-4.4,0c-1.1,0.3-1.7,1.2-1.8,2.7c0-0.3,0.1,1.3,0.3,4.8
	c0.3,6.7,0.5,10.2,0.6,10.6c1.2,0.8,2.5,1.1,3.8,1c3.7-0.3,5.9-2.5,6.7-6.8C123.8,19.5,123.4,15.8,121.9,11.9z M120.8,22.7
	c-0.5,3.5-2.4,5.2-5.7,4.8c-0.6-4.3-0.9-8.9-0.9-14c0-0.3,0.1-0.5,0.2-0.5l5.6,0.3C120.9,17.3,121.2,20.4,120.8,22.7z"/>
<path class="st3" d="M153.3,10.5c1.8,8,3.5,13.6,5.2,16.8c0.1-16.1,0.1-23.9,0-23.6c4-0.2,6.9,0.1,8.9,0.7c0.1,1.2,0,3.5-0.1,6.9
	c-0.1,3,0,5.4,0.1,7.2c0.6,7.1,0.9,10.8,1,11.1c0,0.7-0.1,2-0.3,3.8c-0.2,1.6-0.2,2.9-0.1,3.9c0.1,1.6,0.1,4,0,7.2
	c-0.1,3.2-0.1,5.8,0,7.6c0,0.2,0.1,0.5,0.2,0.8c0.1,0.4,0.2,0.7,0.2,0.8c0.1,0.6,0,1.2-0.4,1.7c-1,0.8-2.7,1.1-5.1,0.9
	c-2-0.1-3.7-0.5-5.2-1.1c-2.8-7.7-5.4-15.8-7.9-24.3c-0.4,2.6-0.7,6.6-0.9,12.2c-0.2,5.7-0.4,9.8-0.8,12.2c-0.8,0.4-2,0.6-3.6,0.6
	c-2.1,0-3.4,0-3.9,0.1c-1-1-1.5-2.7-1.5-5c0-0.2,0-1.3,0.1-3.1c0.1-1.3,0.1-2.3,0-3.2c-0.4-4-0.4-10.3-0.3-18.9
	c0.2-8.4,0.1-14.7-0.3-18.7c0,0.1-0.1-0.5-0.4-1.8c-0.2-0.7-0.1-1.2,0.2-1.7c1.6-0.4,3.7-0.4,6.3,0c3.3,0.5,5.5,0.7,6.5,0.7
	C152,6.1,152.7,8.1,153.3,10.5z"/>
<path class="st5" d="M141.4,13.6c0,0-0.1,5.3-0.2,16c-0.1,10.7,0,18.7,0.2,24.1c0.4,0.1,1.1,0.2,2.1,0c1.1-0.1,1.8,0,2.3,0.1
	c0.2-2.2,0.3-5.8,0.4-11c0.1-4.9,0.3-8.6,0.5-11.1c0.3-3.3,0.5-5.2,0.4-5.8l-0.3-1.3c-0.2-0.8-0.3-1.5-0.4-2
	c-0.2-1.8,0.3-2.7,1.4-2.7c0.7,0,1.3,0.9,1.9,2.5c0.2,0.5,0.4,1.2,0.6,2.1c0.3,1.1,0.4,1.7,0.4,1.8c2,7.3,4.9,16.3,8.7,27.2
	c0.4,0,1.3,0.2,3,0.4c1.2,0.2,2.2,0.2,3-0.1c0.2-5.7,0.2-13.8-0.2-24.1c-0.4-11.2-0.5-19.1-0.4-23.7c-0.4,0-1.1-0.1-2.3-0.1
	c-1,0-1.8-0.1-2.4-0.2c0.2,2,0.3,5.4,0.4,10.1c0.1,4.7,0.2,8.3,0.4,10.6c0.4,5.4,0,8.2-1.1,8.3c-0.7,0.1-1.5-0.8-2.2-2.6
	c-0.2-0.5-0.5-1.2-0.8-2.1c-0.3-0.8-0.4-1.3-0.5-1.5c-2.7-5.6-5-13-7-22.1c-1.1,0-2.5-0.2-4.3-0.4C143.4,6,142,5.8,141,5.8
	C141.3,11,141.4,13.6,141.4,13.6z"/>
<path class="st3" d="M198.7,13c-1.6,0.4-4,0.6-7.3,0.6c-4,0-6.5,0.1-7.7,0.3c0.1,1.2,0.2,2.9,0.3,5.2c0.1,2.4,0.2,4.1,0.3,5.2
	c0.9,0.4,2.8,0.6,5.8,0.6c2.8,0,4.6,0.3,5.4,0.9c0,3.7-0.2,6.3-0.8,7.8c-1.2,0.1-2.9,0.2-5.1,0.2c-3,0-4.7,0-5.3,0
	c-0.5,5.2-0.7,9.3-0.6,12.3c1.3,0.2,3.7,0.2,7.2-0.3c3.2-0.4,5.6-0.3,7.3,0.3c0.5,1.1,0.6,4,0.6,9c-0.8,0.3-4.4,0.5-10.8,0.7
	c-0.8,0-2.1,0.1-3.8,0.3c-1.8,0.2-3.1,0.3-3.9,0.4c-2.9,0.1-5-0.4-6.2-1.7c-0.1-3.1,0-9.5,0.1-19.1c0.2-8.2,0.1-14.8-0.1-19.6
	c-0.4-6.6-0.3-10.7,0.2-12.3c13.4-0.3,21.6-0.1,24.7,0.7C199.1,5.6,199,8.5,198.7,13z"/>
<path class="st5" d="M176.5,29.9c0,1,0,5,0,12.1c0,4.8,0,8.8,0,11.9c2.4,0.4,5.7,0.4,10,0c4.8-0.4,8.1-0.5,10-0.4
	c0-0.7,0-1.6-0.1-2.8c-0.1-1.2-0.1-2.1-0.1-2.8c-1.1-0.3-2.6-0.3-4.4-0.1c-3,0.4-4.5,0.6-4.7,0.6c-2.9,0.1-4.7-0.1-5.3-0.8
	c-0.6-0.8-0.8-3.1-0.6-6.9c0.2-3.5,0.5-6.3,0.9-8.6c0.2-0.1,3.8-0.2,10.6-0.5c-0.1-0.5,0-1.3,0.1-2.4c0.1-1,0.1-1.5-0.1-1.7
	c-0.7-0.2-2.7-0.3-5.8-0.4c-2.5,0-4.2-0.4-5-1.1c0,0-0.1-1.3-0.2-3.6c-0.3-6.5-0.4-10-0.2-10.5c1.3,0,3.7-0.1,7.2-0.2
	c3.3-0.1,5.9-0.1,7.7-0.1c0.2-0.6,0.2-1.4,0.2-2.6c0-1.6,0-2.5,0-2.8c-2.2-0.1-5.5-0.2-9.9-0.2c-4.8,0-8.3,0-10.4-0.1
	c-0.3,0.1-0.4,0.2-0.4,0.5C176.3,12.4,176.5,20.3,176.5,29.9z"/>
<path class="st3" d="M233,41.8c-0.3-5.6-1.9-9.2-4.6-10.7c1-0.3,1.7-1,2.3-2.1c1.4-2.6,2.1-6.5,2.3-11.5c0.2-5.5-0.7-9.1-2.7-10.8
	c-1.5-1.4-3.6-2.3-6.3-2.8c-2-0.4-8.3-0.3-18.8,0.2c-0.5,1.5-0.8,5.7-0.8,12.6v26.5c0,6.9,0.3,11.1,0.8,12.6c4,0.8,7.4,0.9,10,0.2
	c0.4-2.5,0.6-5.6,0.6-9.5c0-4.9,0.1-8.1,0.2-9.7c2,0,3.2,0.1,3.4,0.1c1.2,0.2,2.1,0.6,2.6,1.3c1.1,1.5,1.4,4.8,1,9.8
	c-0.3,3.7-0.3,6,0.2,6.8c0.7,1.2,2.2,1.8,4.6,1.8c1.4,0,3.6-0.3,6.4-0.8C233.9,55.2,233.5,50.5,233,41.8z M216.5,27.6
	c-0.6-4.3-0.9-8.9-0.9-14c0-0.3,0.1-0.5,0.2-0.5l5.6,0.3c0.9,3.8,1.2,6.9,0.9,9.3C221.7,26.3,219.8,27.9,216.5,27.6z"/>
<path class="st5" d="M230.7,44.3c0.1-4.4-0.4-7.6-1.5-9.4c-0.2-0.3-1-0.9-2.4-1.8c-1.2-0.8-1.8-1.5-1.8-2c0-0.5,0.5-0.9,1.4-1.4
	c1.1-0.5,1.7-0.9,1.9-1.1c1.1-1.3,1.8-4.9,2.3-11c0.3-3.6-0.1-6.2-1.1-7.9c-1-1.8-2.9-3-5.7-3.6c-2.2-0.5-4.9-0.6-8.1-0.4
	c-4.4,0.2-7.2,0.3-8.6,0.3c-0.2,6-0.2,13.9-0.2,23.7c0,13.1,0,21.1,0,23.9c2.2,0.4,4.2,0.6,6.1,0.6c0.3-1.6,0.3-5,0.2-10.1
	c-0.1-4.3,0.3-7.4,1-9.5c5.2-0.3,8.4,0.4,9.6,2.1c1.1,1.5,1.6,4.2,1.4,8.1c-0.2,4.7-0.2,7.6,0.1,9c0.1-0.1,2.1,0,6,0.4
	C230.8,52.5,230.6,49.3,230.7,44.3z M216.5,27.6c-0.6-4.3-0.9-8.9-0.9-14c0-0.3,0.1-0.5,0.2-0.5l5.6,0.3c0.9,3.8,1.2,6.9,0.9,9.3
	C221.7,26.3,219.8,27.9,216.5,27.6z"/>
<path class="st3" d="M223.3,11.9c-1-0.5-2.3-0.9-3.9-1.1c-1.8-0.3-3.2-0.3-4.4,0c-1.1,0.3-1.7,1.2-1.8,2.7c0-0.3,0.1,1.3,0.3,4.8
	c0.3,6.7,0.5,10.2,0.6,10.6c1.2,0.8,2.5,1.1,3.8,1c3.7-0.3,5.9-2.5,6.7-6.8C225.2,19.5,224.8,15.8,223.3,11.9z M222.2,22.7
	c-0.5,3.5-2.4,5.2-5.7,4.8c-0.6-4.3-0.9-8.9-0.9-14c0-0.3,0.1-0.5,0.2-0.5l5.6,0.3C222.3,17.3,222.6,20.4,222.2,22.7z"/>
<path class="st3" d="M312.2,14.9c0.3,3.5,0.3,8.7,0,15.8c-0.3,7.2-0.3,12.2,0,15.2c-0.2,0,4.6,0.1,14.4,0.5c0.8,4.5,0.7,7.7-0.2,9.5
	c-3.4,0.6-7.6,0.7-12.7,0.4c-1.5-0.1-3.6-0.2-6.4-0.5c-2.9-0.2-4.9-0.4-6.1-0.5c-0.7-1.3-1-4-0.8-8.1c0.6-12,0.9-18.2,1-18.5
	c0-0.2-0.3-3.5-0.8-9.8c-0.1-0.9-0.1-2.1-0.1-3.7c0-1.8-0.1-3.1-0.1-3.9c-0.2-4.3-0.2-6.7,0-6.9c0.5-0.6,2.1-0.8,4.7-0.6
	c3.3,0.2,5.1,0.3,5.4,0.3C311.2,5.1,311.7,8.8,312.2,14.9z"/>
<path class="st5" d="M302.8,6.3c0.9,12.7,0.9,28.3,0,46.6c6.5,1.3,13.7,1.7,21.7,1v-5.4c-1.7,0.1-4,0-6.9-0.1
	c-3.4-0.1-5.6-0.2-6.7-0.2c-1-0.7-1.5-2.7-1.5-6c0.1-20.1,0-32.1-0.4-36c-0.5-0.1-1.5-0.2-3-0.2c-1.4,0-2.4,0-2.9-0.2
	C302.9,5.9,302.8,6.1,302.8,6.3z"/>
<path class="st3" d="M342.7,55.7c-1,0.5-2.5,0.8-4.7,0.8c-2.1,0-3.8-0.2-4.9-0.6c-0.6-24.1-0.7-41.2-0.2-51.3
	c1.5-1.1,4.8-1.3,9.8-0.5C343.8,24.8,343.8,42,342.7,55.7z"/>
<path class="st5" d="M335,29.9c0.3,12,0.4,20,0.2,24.2c2.5,0.2,4.3,0.2,5.4,0c0.7-15.6,0.6-31.7-0.2-48.1c-1.4-0.3-3.1-0.3-5.2,0
	C334.8,11.8,334.7,19.8,335,29.9z"/>
<path class="st3" d="M363.9,10.5c1.8,8,3.5,13.6,5.2,16.8c0.1-16.1,0.1-23.9,0-23.6c4-0.2,6.9,0.1,8.9,0.7c0.1,1.2,0,3.5-0.1,6.9
	c-0.1,3,0,5.4,0.1,7.2c0.6,7.1,0.9,10.8,1,11.1c0,0.7-0.1,2-0.3,3.8c-0.2,1.6-0.2,2.9-0.1,3.9c0.1,1.6,0.1,4,0,7.2
	c-0.1,3.2-0.1,5.8,0,7.6c0,0.2,0.1,0.5,0.2,0.8c0.1,0.4,0.2,0.7,0.2,0.8c0.1,0.6,0,1.2-0.4,1.7c-1,0.8-2.7,1.1-5.1,0.9
	c-2-0.1-3.7-0.5-5.2-1.1c-2.8-7.7-5.4-15.8-7.9-24.3c-0.4,2.6-0.7,6.6-0.9,12.2c-0.2,5.7-0.4,9.8-0.8,12.2c-0.8,0.4-2,0.6-3.6,0.6
	c-2.1,0-3.4,0-3.9,0.1c-1-1-1.5-2.7-1.5-5c0-0.2,0-1.3,0.1-3.1c0.1-1.3,0.1-2.3,0-3.2c-0.4-4-0.4-10.3-0.3-18.9
	c0.2-8.4,0.1-14.7-0.3-18.7c0,0.1-0.1-0.5-0.4-1.8c-0.2-0.7-0.1-1.2,0.2-1.7c1.6-0.4,3.7-0.4,6.3,0c3.3,0.5,5.5,0.7,6.5,0.7
	C362.6,6.1,363.4,8.1,363.9,10.5z"/>
<path class="st5" d="M352.1,13.6c0,0-0.1,5.3-0.2,16c-0.1,10.7,0,18.7,0.2,24.1c0.4,0.1,1.1,0.2,2.1,0c1.1-0.1,1.8,0,2.3,0.1
	c0.2-2.2,0.3-5.8,0.4-11c0.1-4.9,0.3-8.6,0.5-11.1c0.3-3.3,0.5-5.2,0.4-5.8l-0.3-1.3c-0.2-0.8-0.3-1.5-0.4-2
	c-0.2-1.8,0.3-2.7,1.4-2.7c0.7,0,1.3,0.9,1.9,2.5c0.2,0.5,0.4,1.2,0.6,2.1c0.3,1.1,0.4,1.7,0.4,1.8c2,7.3,4.9,16.3,8.7,27.2
	c0.4,0,1.3,0.2,3,0.4c1.2,0.2,2.2,0.2,3-0.1c0.2-5.7,0.2-13.8-0.2-24.1c-0.4-11.2-0.5-19.1-0.4-23.7c-0.4,0-1.1-0.1-2.3-0.1
	c-1,0-1.8-0.1-2.4-0.2c0.2,2,0.3,5.4,0.4,10.1c0.1,4.7,0.2,8.3,0.4,10.6c0.4,5.4,0,8.2-1.1,8.3c-0.7,0.1-1.5-0.8-2.2-2.6
	c-0.2-0.5-0.5-1.2-0.8-2.1c-0.3-0.8-0.4-1.3-0.5-1.5c-2.7-5.6-5-13-7-22.1c-1.1,0-2.5-0.2-4.3-0.4c-1.9-0.3-3.3-0.4-4.3-0.4
	C352,11,352.1,13.6,352.1,13.6z"/>
<path class="st3" d="M394.3,13.4c0.1,4.1,0.2,7,0.3,8.6c1.3-1.5,2.9-4.3,4.9-8.6c1.9-4.3,3.7-7.2,5.1-8.8c5.5-0.2,8.6-0.1,9.4,0.3
	c0.1,0.7,0,1.5-0.4,2.4c-0.1,0.3-0.4,0.7-0.6,1.1c-0.3,0.5-0.5,0.9-0.6,1.1c-0.5,1.1-1.6,3.4-3,7.1c-1.2,3-2.3,5.3-3.3,6.7
	c-1.8,2.7-2.7,3.9-2.7,3.7c-0.1,0.6,0.2,1.3,0.8,2.3c0.1,0.1,0.4,0.6,0.8,1.2c0.3,0.5,0.6,0.9,0.7,1.2c2,3.8,4.2,9,6.7,15.6
	c1.7,4.5,2.5,7.3,2.5,8.6c0.4-0.2-2.8,0-9.4,0.6c-1.8-2-3.6-4.9-5.1-8.7c-0.5-1.1-1.1-2.7-1.9-4.9c-0.8-2.2-1.5-3.8-1.9-4.9
	c-0.8,0.3-1.3,1.1-1.5,2.2c-0.3,1.5-0.3,4.1-0.1,7.7c0.2,3.7,0.2,6.2-0.1,7.7c-1.6,1.1-4.6,1.2-9,0.3c-0.7-6.6-1.1-15-1.1-25.3
	c-0.2-17.4-0.2-26-0.2-25.6c0.6-1,2.2-1.5,4.7-1.4c2.4,0,4.1,0.4,5.1,1.3C394.1,6.9,394.2,9.8,394.3,13.4z"/>
<path class="st5" d="M387.7,54c2.5,0.2,4,0.2,4.6,0c0.1-1.2,0.1-3.5-0.1-7.1c-0.1-3.3-0.1-5.7,0.1-7.3c0-0.4,0.1-0.9,0.4-1.4
	c0.2-0.5,0.8-1.2,1.8-2.2c1.1-1.2,1.9-1.7,2.4-1.6c0.5,0,1,0.7,1.5,2.1c0.2,0.4,0.4,0.9,0.6,1.5c0.2,0.7,0.3,1,0.4,1.1
	c3.1,7.9,5.4,12.9,6.9,15h6c-0.4-0.8-1.8-4.5-4.3-11.1c-1.7-4.5-3.3-8-4.7-10.6c-1.8-3.3-2.7-5-2.7-5.1c0-0.9,0.4-1.8,1.3-2.8
	c1.5-1.8,2.3-2.7,2.2-2.6c1-1.5,2.2-4,3.6-7.5c1.6-3.9,2.7-6.5,3.5-7.9h-5c-0.8,0.5-1.9,2.4-3.3,5.6c-0.3,0.7-0.8,1.7-1.6,2.9
	c-0.8,1.3-1.4,2.3-1.6,2.8c-1.3,2.6-2.1,4.2-2.5,4.7c-0.1,0.1-0.3,0.5-0.7,1.1c-0.4,0.6-0.6,1-0.9,1.3c-0.8,1-1.5,1.5-2.1,1.4
	c-0.6-0.1-1-0.6-1.2-1.5c-0.1-0.4-0.1-1.3-0.2-2.5c-0.3-10.2-0.4-15.7-0.4-16.4c-0.4,0.1-1.4,0.1-2.9-0.1c-1.1-0.1-1.8,0-2.1,0.4
	C387.3,37.5,387.6,53.3,387.7,54z"/>
</svg>
