<svg xmlns="http://www.w3.org/2000/svg" xmlns:xlink="http://www.w3.org/1999/xlink" version="1.1" style="" xml:space="preserve" width="55.44827584316931" height="55.44827584316943"><rect id="backgroundrect" width="100%" height="100%" x="0" y="0" fill="none" stroke="none" class="" style=""/>
<style type="text/css">
	.st0{fill:none;stroke:#7A2A2B;stroke-width:0.1;stroke-miterlimit:10;}
	.st1{fill:#FFFFFF;stroke:#2A477D;stroke-miterlimit:10;}
	.st2{fill:none;stroke:#2A477D;stroke-miterlimit:10;}
	.st3{fill:#2A477D;}
	.st4{fill:none;stroke:#2A477D;stroke-width:2.1;stroke-miterlimit:10;}
	.st5{fill:#FFFFFF;}
</style>


























<g class="currentLayer" style=""><title>Layer 1</title><g id="svg_1" class="" fill="#c9ddf2" fill-opacity="1">
	<g id="svg_2" fill="#c9ddf2" fill-opacity="1">
		<path class="st1" d="M19.77413756325842,19.724139855802058 c0,0 1.3,0.7000000000000006 5.4,0.3000000000000003 c0,0 1.5,-0.5 2.7,1.5 l-1,3.6 c0,0 5.3,7.1 5.6,11 c0,0 -0.3000000000000003,2.6 -2.5,1.3 c0,0 -0.8,1.8 -3,0.7000000000000006 c0,0 -0.8,1.4 -2.6,0.4 c0,0 -1.3,1.1 -3,-0.3000000000000003 l-5.6,-8.4 c0,0 -1.1,-2.2 -2.4,-2.9 L19.77413756325842,19.724139855802058 z" id="svg_3" fill="#c9ddf2" fill-opacity="1"/>
		<path class="st1" d="M27.374137563258387,31.124139855802056 c0,0 0,1.1 0.4,1.7000000000000002 c0.3000000000000003,0.7000000000000006 2.2,4.5 2.2,4.5 " id="svg_4" fill="#c9ddf2" fill-opacity="1"/>
		<line class="st2" x1="24.67414977028966" y1="33.92413832992315" x2="26.874131459742785" y2="38.02414061874151" id="svg_5"/>
		<path class="st1" d="M21.97413756325841,34.92413985580206 c0,0 0.6000000000000006,0.3000000000000003 1.5,2.3 c0,0 0.7000000000000006,1.1 0.9,1.3 " id="svg_6" fill="#c9ddf2" fill-opacity="1"/>
	</g>
	<path class="st1" d="M15.27413756325842,32.02413985580206 c0,-0.1 -0.1,-0.2 -0.1,-0.3000000000000003 c-0.4,-1.5 1.4,-2.3 2.6,-2.4 c0.3000000000000003,0 0.7000000000000006,0 1,0.1 c0.4,0.2 0.6000000000000006,0.8 0.7000000000000006,1.3 c0,0.5 -0.2,0.8 -0.6000000000000006,1 c-0.4,0.2 -0.7000000000000006,0.5 -1.1,0.7000000000000006 c-0.4,0.3000000000000003 -1.3,1 -1.8,0.6000000000000006 c-0.1,-0.1 -0.2,-0.2 -0.3000000000000003,-0.3000000000000003 C15.47413756325841,32.52413985580206 15.374137563258415,32.32413985580206 15.27413756325842,32.02413985580206 z" id="svg_7" fill="#c9ddf2" fill-opacity="1"/>
	<path class="st1" d="M17.174137563258398,32.72413985580206 c0.3000000000000003,-0.2 0.6000000000000006,-0.4 0.9,-0.6000000000000006 c0.6000000000000006,-0.3000000000000003 1.3,-0.7000000000000006 2,-0.7000000000000006 c0.7000000000000006,0 1.2,0.6000000000000006 1.2,1.2 c0.1,1 -0.9,1.4 -1.6,1.9 c-0.6000000000000006,0.4 -1.6,1.5 -2.5,0.8 c-0.4,-0.3000000000000003 -0.7000000000000006,-0.9 -0.7000000000000006,-1.4 C16.574137563258404,33.32413985580206 16.77413756325842,33.02413985580206 17.174137563258398,32.72413985580206 z" id="svg_8" fill="#c9ddf2" fill-opacity="1"/>
	<path class="st1" d="M20.574137563258432,34.02413985580206 C20.574137563258432,34.02413985580206 20.574137563258432,34.02413985580206 20.574137563258432,34.02413985580206 c0.5,0.3000000000000003 0.9,0.7000000000000006 1,1.2 c0.1,0.3000000000000003 -0.1,0.7000000000000006 -0.3000000000000003,0.9 c-0.2,0.2 -0.5,0.4 -0.6000000000000006,0.7000000000000006 c-0.1,0.2 0,0.3000000000000003 0.1,0.5 c0.1,0.2 0.1,0.3000000000000003 0.3000000000000003,0.4 c0,0 -0.5,0.1 -0.5,0.1 c-0.2,0 -0.4,0 -0.5,-0.1 c-0.8,-0.2 -1.4,-0.8 -1.5,-1.7000000000000002 c0,-0.3000000000000003 0.1,-0.4 0.3000000000000003,-0.6000000000000006 c0.2,-0.2 0.4,-0.4 0.6000000000000006,-0.6000000000000006 C19.674137563258398,34.52413985580206 20.074137563258432,34.22413985580206 20.574137563258432,34.02413985580206 C20.47413756325841,34.02413985580206 20.574137563258432,34.02413985580206 20.574137563258432,34.02413985580206 C20.574137563258432,34.02413985580206 20.574137563258432,34.02413985580206 20.574137563258432,34.02413985580206 z" id="svg_9" fill="#c9ddf2" fill-opacity="1"/>
	<path class="st1" d="M14.074137563258404,27.52413985580206 C14.074137563258404,27.52413985580206 14.074137563258404,27.52413985580206 14.074137563258404,27.52413985580206 c-0.1,0 -0.1,0 -0.1,0.1 c-0.4,0.5 -0.7000000000000006,1.1 -0.7000000000000006,1.7000000000000002 c0.1,0.7000000000000006 0.7000000000000006,1.1 1.3,1.3 c0,0 0.1,0 0.1,0 c0,0 0,0 0,0 c0.4,0 0.8,-0.2 1,-0.6000000000000006 c0,0 0,0 0,-0.1 v0 c0.1,-0.3000000000000003 0,-0.6000000000000006 -0.1,-0.8 c-0.1,-0.3000000000000003 -0.3000000000000003,-0.5 -0.5,-0.7000000000000006 C14.874137563258415,28.02413985580206 14.574137563258404,27.724139855802058 14.074137563258404,27.52413985580206 C14.174137563258398,27.52413985580206 14.074137563258404,27.52413985580206 14.074137563258404,27.52413985580206 " id="svg_10" fill="#c9ddf2" fill-opacity="1"/>
	<path class="st1" d="M30.374137563258387,30.92413985580206 c1,1.6 1.6,3.4 2.1,5.2 c1.9,-0.6000000000000006 3.9,-1.1 5.9,-1.3 c-0.6000000000000006,-3.1 -1.3,-6.2 -1.9,-9.3 c0,-0.1 0,-0.2 -0.1,-0.3000000000000003 c-0.1,-0.1 -0.2,-0.2 -0.4,-0.2 c-1.6,-0.4 -3.2,-1 -4.5,-2.1 c-0.6000000000000006,-0.5 -1.1,-1 -1.8,-1.3 c-0.8,-0.3000000000000003 -1.7000000000000002,-0.2 -2.6,-0.1 c-1.1,0.2 -2.3,0.4 -3.4,0.7000000000000006 c-0.5,0.2 -1.1,0.4 -1.4,0.8 c-0.4,0.4 -0.5,1 -0.8,1.4 c-0.3000000000000003,0.4 -0.7000000000000006,0.7000000000000006 -1,1.1 c-0.3000000000000003,0.4 -0.4,1 -0.2,1.4 c0.1,0.2 0.4,0.4 0.7000000000000006,0.5 c0.6000000000000006,0.2 1.4,0.2 2,0 c0.7000000000000006,-0.3000000000000003 1.2,-0.8 1.7000000000000002,-1.2 c0.6000000000000006,-0.4 1.2,-0.8 1.9,-0.7000000000000006 c0.2,0 0.3000000000000003,0.1 0.4,0.2 c0.4,0.3000000000000003 0.4,0.8 0.5,1.2 c0.2,0.5 0.4,1.1 0.7000000000000006,1.5 C28.97413756325841,29.224139855802058 29.47413756325841,30.124139855802056 30.374137563258387,30.92413985580206 c0.4,0.3000000000000003 1,0.4 1.5,0.3000000000000003 " id="svg_11" fill="#c9ddf2" fill-opacity="1"/>
	<path class="st1" d="M17.874137563258415,18.12413985580206 l2,1.4 c0,0 -4.5,6.4 -8.7,9.1 c0,0 -3.5,-0.2 -4.9,-1.5 L17.874137563258415,18.12413985580206 z" id="svg_12" fill="#c9ddf2" fill-opacity="1"/>
	<path class="st3" d="M18.27413756325842,18.02413985580206 c0,0 -0.1,0.1 -0.2,0.3000000000000003 c-0.9,1.2 -4.6,6.1 -11.8,8.9 h0 c-0.6000000000000006,0.2 -1.2,0.4 -1.8,0.6000000000000006 l-2.7,-3 c0.1,-1 0.3000000000000003,-2 0.5,-2.9 c1.2,-5.1 3.9,-9.6 7.6,-13.1 c0,0 0.1,-0.1 0.1,-0.1 L18.27413756325842,18.02413985580206 z" id="svg_13" fill="#c9ddf2" fill-opacity="1"/>
	<path class="st1" d="M36.27413756325842,24.92413985580206 l3.2,-0.4 c0,0 4,5.7 4.2,11.9 c0,0 -4.1,-0.6000000000000006 -5.2,-1.6 L36.27413756325842,24.92413985580206 z" id="svg_14" fill="#c9ddf2" fill-opacity="1"/>
	<g id="svg_15" fill="#c9ddf2" fill-opacity="1">
		<path class="st3" d="M53.77413756325842,27.724139855802058 c0,3.5 -0.7000000000000006,6.8 -1.9,9.9 c-0.2,0.5 -0.4,0.9 -0.6000000000000006,1.4 c-0.9,0.3000000000000003 -1.9,0.5 -3,0.8 c-1.5,0.4 -3.1,0.9 -4.6,1.3 c-0.9,-1.8 -1.6,-3.5 -2.2,-5.1 c-2.2,-5.8 -3,-10.1 -3.2,-11.3 c0,-0.2 0,-0.4 -0.1,-0.4 v0 l4.1,-0.9 l10.6,-2.3 c0.1,0.5 0.2,1 0.3000000000000003,1.5 C53.57413756325843,24.224139855802058 53.77413756325842,26.02413985580206 53.77413756325842,27.724139855802058 z" id="svg_16" fill="#c9ddf2" fill-opacity="1"/>
	</g>
	<path class="st4" d="M53.77413756325842,27.724139855802058 c0,3.5 -0.7000000000000006,6.8 -1.9,9.9 c-0.2,0.5 -0.4,0.9 -0.6000000000000006,1.4 c-4.2,8.7 -13.1,14.8 -23.5,14.8 c-14.4,0 -26.1,-11.7 -26.1,-26.1 c0,-1 0.1,-2 0.2,-3 c0.1,-1 0.3000000000000003,-2 0.5,-2.9 c1.2,-5.1 3.9,-9.6 7.6,-13.1 c0,0 0.1,-0.1 0.1,-0.1 c4.6,-4.3 10.9,-7 17.7,-7 c12.1,0 22.3,8.3 25.2,19.4 c0.1,0.5 0.2,1 0.3000000000000003,1.5 C53.57413756325843,24.224139855802058 53.77413756325842,26.02413985580206 53.77413756325842,27.724139855802058 z" id="svg_17" fill="#c9ddf2" fill-opacity="1"/>
</g></g></svg>